<svg xmlns="http://www.w3.org/2000/svg" viewBox="0 0 280.55 183.98"><defs><style>.cls-1{fill:#878787;}</style></defs><title>slo</title><g id="Layer_2" data-name="Layer 2"><polygon class="cls-1" points="276.75 38.56 273.5 33.43 270.38 31.52 268.7 30.29 268.03 28.51 268.81 27.28 270.49 26.49 271.72 25.27 271.16 22.8 269.81 21.91 268.14 21.8 266.91 21.25 266.91 19.12 265.69 19.34 264.9 18.33 264.12 16.88 263.11 15.65 261.88 11.96 261.66 11.52 261.99 10.07 263.11 8.05 263.67 6.6 264.23 5.03 264.46 3.92 264 3.25 262.66 3.13 261.88 2.69 260.09 0.56 259.2 0 247.02 1 243.32 0.11 237.85 3.36 233.83 4.37 233.27 4.7 232.38 5.59 232.49 5.93 232.82 6.26 232.93 7.15 232.37 11.17 232.26 13.41 232.37 15.65 233.38 18.78 235.28 20.01 236.29 22.02 236.51 25.04 234.83 22.91 233.83 22.24 230.25 21.58 224.22 18.55 221.76 18 219.3 18.22 213.26 20.68 210.91 20.79 204.09 19.78 202.64 18.89 202.42 20.9 202.42 22.58 201.86 23.7 200.97 24.37 199.85 24.7 198.51 24.37 196.61 24.37 194.71 24.93 193.37 25.93 192.47 27.72 192.13 29.17 191.58 30.4 189.9 31.74 187.21 32.2 185.21 30.96 183.19 29.17 180.62 28.17 164.31 28.95 151.56 27.61 146.42 29.29 143.06 33.98 141.39 31.52 140.16 31.3 136.92 33.32 135.02 33.53 133.79 33.43 132.68 33.87 131.23 35.99 130.22 38.12 128.88 42.14 127.19 45.94 126.64 46.39 124.63 47.28 122.39 47.72 121.61 47.17 120.16 47.84 119.6 48.51 119.15 49.41 118.14 50.64 117.47 52.2 116.24 51.98 115.8 52.09 114.01 53.99 113.12 54.55 112.22 54.77 110.33 54.88 109.43 55.23 108.09 57.12 107.3 59.58 106.52 61.7 104.95 62.37 103.72 61.14 102.72 58.91 101.49 57.23 98.47 57.9 97.02 57.68 94.33 56.45 93.78 55.89 93.56 55.22 93.1 54.66 92.22 54.44 89.19 55.1 70.31 54.55 69.19 54.22 64.16 49.85 62.82 49.18 61.36 48.73 59.8 48.73 56.78 49.3 55.33 49.07 47.17 45.27 44.49 44.82 38.67 45.83 37.45 45.83 31.52 44.38 30.18 44.26 30.18 45.27 30.07 46.16 29.74 46.95 29.18 47.62 29.06 50.86 28.05 52.87 26.38 53.76 24.14 53.65 21.13 54.1 18.89 56.11 16.99 58.79 14.86 61.03 10.73 63.27 8.61 64.83 7.49 65.39 6.26 65.5 5.26 66.62 4.03 69.3 2.35 72.09 0 73.55 0.68 74.77 1.23 76.34 1.79 79.58 3.02 81.15 3.36 82.94 4.14 84.06 6.6 83.72 5.37 81.48 6.71 81.93 9.39 82.15 10.62 82.82 13.08 83.39 14.75 84.62 17.44 87.3 19.67 87.63 22.24 87.41 24.37 87.85 25.04 90.2 22.47 94.9 12.52 102.38 10.51 105.07 11.18 105.85 11.41 106.63 11.18 107.52 10.51 108.42 10.06 108.75 8.72 109.98 9.84 111.32 10.29 111.67 10.4 111.77 10.51 111.89 10.51 112.11 12.97 114.9 15.65 114.68 18.55 113.34 21.58 112.67 23.14 115.13 21.8 120.16 18.33 128.09 18 132.46 19.34 135.13 21.8 136.48 24.93 136.81 26.38 137.26 30.74 140.61 36.88 143.41 43.93 155.36 44.82 156.37 46.16 157.15 46.95 157.15 47.06 157.48 46.39 159.16 42.92 163.52 38.79 163.97 35.32 162.07 30.97 162.51 32.31 164.09 33.65 165.54 34.55 166.88 34.55 167.65 20.01 169.78 18.11 169.34 18.44 170.45 19.01 171.23 19.67 171.8 20.57 171.91 20.57 172.69 20.01 174.03 20.23 175.15 20.01 175.71 23.47 179.5 35.1 178.95 39.34 181.63 40.57 182.86 41.92 183.31 46.72 183.98 47.73 183.31 48.51 182.07 49.85 180.84 53.98 179.06 55.1 177.5 53.21 175.26 53.21 173.92 53.54 173.02 54.22 172.58 58.01 173.36 59.24 174.03 60.47 175.26 62.71 176.82 65.05 177.61 67.39 177.72 69.75 177.27 74 175.26 76.23 174.59 78.24 175.04 81.81 176.93 85.96 177.72 89.98 177.38 93.44 175.37 95.12 173.81 98.58 171.23 99.81 169.11 100.26 167.32 100.71 163.98 101.27 162.29 102.05 161.06 104.29 158.49 105.17 157.15 106.29 154.58 106.97 153.8 108.42 153.13 109.43 153.69 109.65 155.59 109.54 157.94 109.65 159.61 110.44 161.18 111.55 162.41 114.57 164.86 115.24 165.08 115.8 165.43 116.35 166.09 116.47 167.1 116.13 169.34 116.13 170 117.92 171.46 126.2 175.15 127.53 178.61 131.23 179.39 135.02 178.05 136.69 175.15 137.03 172.46 138.6 172.46 140.61 173.81 142.18 175.26 144.3 175.48 145.3 175.93 146.2 176.72 150.56 176.82 157.94 183.08 161.96 183.65 170.57 180.4 173.47 180.4 174.48 180.18 175.26 179.5 176.82 177.27 177.72 176.49 173.25 173.47 172.02 171.35 171.35 168.67 170.79 165.31 170.23 163.74 169.56 162.41 169.45 161.41 170.57 160.84 171.12 160.29 171.46 159.28 172.02 158.39 174.59 157.6 175.71 157.04 176.94 156.6 178.73 156.6 178.28 155.48 176.82 153.02 175.26 151.12 175.04 150.89 174.7 151 173.58 151.34 173.13 151.68 173.02 152.24 172.69 152.46 171.57 152.01 170.79 151.45 170.34 150.78 169.45 149.1 168.55 148.21 167.89 147.87 167.66 147.31 168.22 145.87 169 144.97 172.58 142.95 183.76 139.26 184.88 138.38 184.75 137.15 184.42 135.8 184.88 134.57 185.88 134.13 186.88 134.24 187.89 134.57 188.89 134.8 189.79 134.46 191.47 133.12 192.36 132.68 198.06 133.68 201.3 133.91 202.98 133.45 204.77 132.46 205.66 131.11 205.66 129.32 204.66 126.75 204.31 125.19 204.66 123.62 205.32 122.05 205.78 120.49 205.89 118.37 205.66 111.77 206.33 109.2 207.34 107.63 207.67 106.29 206.44 104.4 205.32 103.61 202.86 102.6 201.75 101.94 199.28 99.37 198.06 96.46 198.06 93.22 199.28 89.53 200.97 86.4 202.42 84.27 204.31 83.27 212.25 83.83 213.93 82.72 215.72 79.69 216.95 78.8 218.29 78.13 219.74 77.8 224.1 77.68 229.91 74.55 232.93 74 234.38 73.55 236.29 72.66 238.07 71.43 239.3 70.08 239.98 68.29 239.98 66.62 239.75 64.83 239.75 62.48 242.99 63.15 244 62.93 244.9 62.26 245.56 61.25 246.35 60.47 247.46 60.25 248.36 60.7 250.48 62.71 251.71 63.48 253.16 63.82 253.94 63.82 257.19 63.04 259.19 63.04 259.64 62.59 259.54 61.14 259.08 60.58 257.63 59.58 257.08 58.9 256.86 57.8 256.97 55.67 256.86 54.66 255.85 51.08 255.51 49.3 255.63 47.39 258.19 44.49 260.99 43.37 262.33 42.59 264.12 42.03 265.35 40.57 266.02 41.58 266.58 40.57 267.58 41.36 268.7 41.47 269.81 41.36 270.82 41.47 271.61 42.03 273.06 43.6 273.84 44.15 274.62 44.26 276.64 44.04 277.52 44.15 278.42 44.71 280.55 46.39 279.76 41.13 276.75 38.56"/></g></svg>