<svg xmlns="http://www.w3.org/2000/svg" viewBox="0 0 32 32"><path d="M21.25 6.008c0-6.904-10.5-6.904-10.5 0v13.048a7.25 7.25 0 1 0 10.496-.002l.003.003zM16 28.75a4.75 4.75 0 0 1-3.17-8.287l.004-.004c.009-.008.013-.02.022-.029.059-.063.112-.133.157-.208l.003-.006a1.28 1.28 0 0 0 .119-.175l.003-.006c.02-.055.037-.122.049-.19l.001-.007c.027-.081.047-.175.056-.272v-.005l.007-.033V6.008a2.752 2.752 0 1 1 5.5.005v-.005 13.52c0 .012.007.023.007.035.009.098.028.188.056.274l-.002-.009c.013.079.031.149.055.217l-.003-.009c.038.068.079.127.123.182l-.002-.002c.048.081.101.151.16.215l-.001-.001c.009.009.012.021.022.029A4.75 4.75 0 0 1 16 28.75zm1.25-7.749v-7.5a1.25 1.25 0 0 0-2.5 0v7.5a3.257 3.257 0 0 0-2 3 3.25 3.25 0 1 0 4.521-2.992l-.021-.008zM26.5 1.75a3.75 3.75 0 1 0 3.75 3.75 3.754 3.754 0 0 0-3.75-3.75zm0 5a1.25 1.25 0 1 1 1.25-1.25 1.252 1.252 0 0 1-1.25 1.25z"/></svg>